<svg xmlns="http://www.w3.org/2000/svg" width="48" height="48" viewBox="0 0 48 48" role="img" aria-label="Tônico de Vigor Concentrado">
  <defs>
    <linearGradient id="vigor" x1="0" y1="0" x2="0" y2="1">
      <stop offset="0" stop-color="#ffe066"/>
      <stop offset="1" stop-color="#c77d0a"/>
    </linearGradient>
  </defs>
  <path fill="#c7d2d8" d="M18 5h12v5l-2 3v4c7 2 11 8 11 15 0 7-6 11-15 11S9 39 9 32c0-7 4-13 11-15v-4l-2-3z"/>
  <path fill="#26343d" d="M17 8h14v5H17z"/>
  <path fill="url(#vigor)" d="M10 22c4 2 9 1 13-1 6-2 10-2 15 1v11c0 5-5 8-14 8s-14-3-14-8z"/>
  <path fill="#fff3c4" d="M17 29c2 0 3 1 3 3s-1 3-3 3-3-1-3-3 1-3 3-3z" opacity=".85"/>
</svg>
